<?xml version="1.0" encoding="UTF-8"?>
<svg version="1.1" xmlns="http://www.w3.org/2000/svg" width="470" height="470">
<path d="M0 0 C0.96594086 0.00054382 1.93188171 0.00108765 2.92709351 0.00164795 C18.82562753 0.04267558 34.10512663 0.97210178 49.6875 4.375 C51.17467529 4.69645996 51.17467529 4.69645996 52.69189453 5.02441406 C85.91831744 12.45614206 118.0274873 27.11593815 144.6875 48.375 C145.5846875 49.08011719 146.481875 49.78523438 147.40625 50.51171875 C196.36529134 89.69302051 228.23302302 146.36817762 235.29052734 208.89013672 C236.13401791 217.46192152 236.08078638 226.08265011 236.0625 234.6875 C236.06168427 236.13641129 236.06168427 236.13641129 236.06085205 237.61459351 C236.01982442 253.51312753 235.09039822 268.79262663 231.6875 284.375 C231.36604004 285.86217529 231.36604004 285.86217529 231.03808594 287.37939453 C223.60635794 320.60581744 208.94656185 352.7149873 187.6875 379.375 C186.62982422 380.72078125 186.62982422 380.72078125 185.55078125 382.09375 C146.36947949 431.05279134 89.69432238 462.92052302 27.17236328 469.97802734 C18.60057848 470.82151791 9.97984989 470.76828638 1.375 470.75 C0.40905914 470.74945618 -0.55688171 470.74891235 -1.55209351 470.74835205 C-17.45062753 470.70732442 -32.73012663 469.77789822 -48.3125 466.375 C-49.79967529 466.05354004 -49.79967529 466.05354004 -51.31689453 465.72558594 C-84.54331744 458.29385794 -116.6524873 443.63406185 -143.3125 422.375 C-144.2096875 421.66988281 -145.106875 420.96476562 -146.03125 420.23828125 C-194.99029134 381.05697949 -226.85802302 324.38182238 -233.91552734 261.85986328 C-234.75901791 253.28807848 -234.70578638 244.66734989 -234.6875 236.0625 C-234.68695618 235.09655914 -234.68641235 234.13061829 -234.68585205 233.13540649 C-234.64482442 217.23687247 -233.71539822 201.95737337 -230.3125 186.375 C-229.99104004 184.88782471 -229.99104004 184.88782471 -229.66308594 183.37060547 C-222.23135794 150.14418256 -207.57156185 118.0350127 -186.3125 91.375 C-185.60738281 90.4778125 -184.90226562 89.580625 -184.17578125 88.65625 C-144.99447949 39.69720866 -88.31932238 7.82947698 -25.79736328 0.77197266 C-17.22557848 -0.07151791 -8.60484989 -0.01828638 0 0 Z M-38.3125 44.375 C-39.47023926 44.63240967 -39.47023926 44.63240967 -40.65136719 44.89501953 C-58.80635334 49.02249403 -75.9432644 55.54013254 -92.3125 64.375 C-92.92464355 64.70113281 -93.53678711 65.02726562 -94.16748047 65.36328125 C-102.78744264 69.98514615 -110.68113154 75.25192557 -118.3125 81.375 C-119.33859375 82.19613281 -120.3646875 83.01726562 -121.421875 83.86328125 C-145.15684715 103.22688374 -163.43451685 126.58951027 -176.3125 154.375 C-176.83328125 155.46554688 -177.3540625 156.55609375 -177.890625 157.6796875 C-187.39068495 178.52981908 -193.37566114 201.8973446 -193.515625 224.86328125 C-193.52263931 225.64017303 -193.52965363 226.41706482 -193.53688049 227.21749878 C-193.55426732 229.707559 -193.56073173 232.19738133 -193.5625 234.6875 C-193.56351212 235.9644725 -193.56351212 235.9644725 -193.56454468 237.26724243 C-193.54867102 249.8645471 -193.15865674 262.0518355 -190.3125 274.375 C-190.05509033 275.53273926 -190.05509033 275.53273926 -189.79248047 276.71386719 C-185.66500597 294.86885334 -179.14736746 312.0057644 -170.3125 328.375 C-169.98636719 328.98714355 -169.66023438 329.59928711 -169.32421875 330.22998047 C-164.70235385 338.84994264 -159.43557443 346.74363154 -153.3125 354.375 C-152.49136719 355.40109375 -151.67023438 356.4271875 -150.82421875 357.484375 C-131.46061626 381.21934715 -108.09798973 399.49701685 -80.3125 412.375 C-79.22195312 412.89578125 -78.13140625 413.4165625 -77.0078125 413.953125 C-56.15768092 423.45318495 -32.7901554 429.43816114 -9.82421875 429.578125 C-9.04732697 429.58513931 -8.27043518 429.59215363 -7.47000122 429.59938049 C-4.979941 429.61676732 -2.49011867 429.62323173 0 429.625 C0.851315 429.62567474 1.70263 429.62634949 2.57974243 429.62704468 C15.1770471 429.61117102 27.3643355 429.22115674 39.6875 426.375 C40.45932617 426.20339355 41.23115234 426.03178711 42.02636719 425.85498047 C60.18135334 421.72750597 77.3182644 415.20986746 93.6875 406.375 C94.29964355 406.04886719 94.91178711 405.72273438 95.54248047 405.38671875 C104.16244264 400.76485385 112.05613154 395.49807443 119.6875 389.375 C120.71359375 388.55386719 121.7396875 387.73273438 122.796875 386.88671875 C146.53184715 367.52311626 164.80951685 344.16048973 177.6875 316.375 C178.20828125 315.28445313 178.7290625 314.19390625 179.265625 313.0703125 C188.76568495 292.22018092 194.75066114 268.8526554 194.890625 245.88671875 C194.89763931 245.10982697 194.90465363 244.33293518 194.91188049 243.53250122 C194.92926732 241.042441 194.93573173 238.55261867 194.9375 236.0625 C194.93817474 235.211185 194.93884949 234.35987 194.93954468 233.48275757 C194.92367102 220.8854529 194.53365674 208.6981645 191.6875 196.375 C191.51589355 195.60317383 191.34428711 194.83134766 191.16748047 194.03613281 C187.04000597 175.88114666 180.52236746 158.7442356 171.6875 142.375 C171.36136719 141.76285645 171.03523438 141.15071289 170.69921875 140.52001953 C166.07735385 131.90005736 160.81057443 124.00636846 154.6875 116.375 C153.86636719 115.34890625 153.04523438 114.3228125 152.19921875 113.265625 C132.83561626 89.53065285 109.47298973 71.25298315 81.6875 58.375 C80.59695313 57.85421875 79.50640625 57.3334375 78.3828125 56.796875 C57.53268092 47.29681505 34.1651554 41.31183886 11.19921875 41.171875 C10.42232697 41.16486069 9.64543518 41.15784637 8.84500122 41.15061951 C6.354941 41.13323268 3.86511867 41.12676827 1.375 41.125 C0.523685 41.12432526 -0.32763 41.12365051 -1.20474243 41.12295532 C-13.8020471 41.13882898 -25.9893355 41.52884326 -38.3125 44.375 Z " fill="#097AF2" transform="translate(234.3125,-0.375)"/>
<path d="M0 0 C13.53 0 27.06 0 41 0 C41.2475 4.2075 41.495 8.415 41.75 12.75 C43.65072043 40.29056426 50.54011603 66.73754821 64 91 C64.47695312 91.9384375 64.95390625 92.876875 65.4453125 93.84375 C84.25874354 130.39555888 117.06830403 158.8829449 154 176 C155.09054688 176.52078125 156.18109375 177.0415625 157.3046875 177.578125 C178.15481908 187.07818495 201.5223446 193.06316114 224.48828125 193.203125 C225.26517303 193.21013931 226.04206482 193.21715363 226.84249878 193.22438049 C229.332559 193.24176732 231.82238133 193.24823173 234.3125 193.25 C235.163815 193.25067474 236.01513 193.25134949 236.89224243 193.25204468 C249.4895471 193.23617102 261.6768355 192.84615674 274 190 C274.77182617 189.82839355 275.54365234 189.65678711 276.33886719 189.47998047 C294.49385334 185.35250597 311.6307644 178.83486746 328 170 C328.61214355 169.67386719 329.22428711 169.34773437 329.85498047 169.01171875 C338.47467656 164.38999652 346.36974906 159.12414912 354 153 C354.51385254 152.58911133 355.02770508 152.17822266 355.55712891 151.75488281 C379.60084778 132.39270009 398.01344583 109.01974217 411 81 C411.52078125 79.90945313 412.0415625 78.81890625 412.578125 77.6953125 C424.00509639 52.6161174 427.29796445 27.2325688 429 0 C442.53 0 456.06 0 470 0 C471.38435536 51.56723717 454.25750368 103.54734673 422 144 C421.29488281 144.8971875 420.58976562 145.794375 419.86328125 146.71875 C380.68197949 195.67779134 324.00682238 227.54552302 261.48486328 234.60302734 C252.91307848 235.44651791 244.29234989 235.39328638 235.6875 235.375 C234.72155914 235.37445618 233.75561829 235.37391235 232.76040649 235.37335205 C216.86187247 235.33232442 201.58237337 234.40289822 186 231 C185.0085498 230.78569336 184.01709961 230.57138672 182.99560547 230.35058594 C149.76918256 222.91885794 117.6600127 208.25906185 91 187 C90.1028125 186.29488281 89.205625 185.58976563 88.28125 184.86328125 C42.07008663 147.88107148 12.1241098 96.31920361 2 38 C1.80301514 36.8877002 1.80301514 36.8877002 1.60205078 35.75292969 C-0.42931933 23.83821747 -0.15069957 12.05596591 0 0 Z " fill="#F20934" transform="translate(0,235)"/>
<path d="M0 0 C9.08231912 7.49495884 14.14429075 16.25710999 15.40625 28.0078125 C15.72237276 37.72442774 13.19286709 47.49162687 6.859375 55.015625 C-0.77866795 63.02410421 -8.49717681 68.10661133 -19.7421875 69.02734375 C-30.80788017 69.28787431 -40.22274266 67.11850362 -48.796875 59.8359375 C-57.19870922 51.3857242 -61.06026789 42.74707967 -61.26953125 30.9140625 C-61.1759021 19.70587247 -57.73695823 10.79979156 -49.83203125 2.7890625 C-35.45075959 -9.6344226 -15.66430239 -11.25611818 0 0 Z " fill="#FFF200" transform="translate(316.83203125,204.2109375)"/>
<path d="M0 0 C7.4028785 5.0199777 13.51025338 12.62637997 15.91015625 21.36328125 C17.77508819 33.58492258 16.75546122 44.98367987 9.5 55.3125 C3.38588422 62.78700654 -4.02829982 68.18461841 -13.6875 70 C-26.5570623 70.87518763 -37.35470542 69.73110333 -47.6171875 61.10546875 C-55.46491176 53.12448125 -59.5502379 43.24305441 -60.125 32.125 C-59.67318931 20.28379495 -54.97608587 11.19013442 -46.69140625 3.03515625 C-33.20697444 -8.66784604 -14.97574419 -8.62553222 0 0 Z " fill="#FFF200" transform="translate(227.6875,279)"/>
<path d="M0 0 C7.47450654 6.11411578 12.87211841 13.52829982 14.6875 23.1875 C15.56268763 36.0570623 14.41860333 46.85470542 5.79296875 57.1171875 C-2.18801875 64.96491176 -12.06944559 69.0502379 -23.1875 69.625 C-35.02870505 69.17318931 -44.12236558 64.47608587 -52.27734375 56.19140625 C-58.85558701 48.61182364 -62.14399746 38.68388831 -61.625 28.64453125 C-60.29969095 18.22428883 -56.60443596 9.02378589 -48.7265625 1.82421875 C-34.21728312 -9.29143366 -15.35117825 -10.7834077 0 0 Z " fill="#FFF200" transform="translate(229.3125,127.8125)"/>
</svg>
